/* XPM */
static char * check_xpm[] = {
"13 10 3 1",
" 	c None",
".	c #FFFFFF",
"+	c #000000",
"          .. ",
"         .++.",
"        .++. ",
"  .    .++.  ",
" .+.  .++.   ",
".+++..++.    ",
" .+++++.     ",
"  .+++.      ",
"   .+.       ",
"    .        "};
