/* XPM */
static char * edit_xpm[] = {
"15 15 2 1",
" 	c None",
".	c #FFFFFF",
"       ...     ",
"       .  ..   ",
"      .    .   ",
"      ..  .    ",
"     .  ...    ",
"     .   .     ",
"    .    .     ",
"    .   .      ",
"   .    .      ",
"   .   .       ",
"   ..  .       ",
"   ....        ",
"   ...         ",
"   ..          ",
"   .           "};
