/* XPM */
static char * eject_xpm[] = {
"11 11 2 1",
" 	c None",
".	c #FFFFFF",
"           ",
"     .     ",
"    ...    ",
"   .....   ",
"  .......  ",
" ......... ",
"           ",
"           ",
" ......... ",
" ......... ",
"           "};
