/* XPM */
static char * gcd_xpm[] = {
"75 79 257 2",
"  	c None",
". 	c #020204",
"+ 	c #237ED8",
"@ 	c #820B1C",
"# 	c #11447C",
"$ 	c #88C0F4",
"% 	c #48060F",
"& 	c #864A84",
"* 	c #1864B6",
"= 	c #0B2440",
"- 	c #AF84B5",
"; 	c #4A457E",
"> 	c #8C305C",
", 	c #240205",
"' 	c #11549C",
") 	c #499FEC",
"! 	c #C9C1DF",
"~ 	c #422A4C",
"{ 	c #B31225",
"] 	c #95A9E1",
"^ 	c #0F345E",
"/ 	c #051425",
"( 	c #D04E6C",
"_ 	c #670A15",
": 	c #C6E0FC",
"< 	c #31437A",
"[ 	c #538FD5",
"} 	c #5265B1",
"| 	c #C9638A",
"1 	c #2E5398",
"2 	c #729EEC",
"3 	c #821B34",
"4 	c #2B8FE4",
"5 	c #3666AC",
"6 	c #BC2C44",
"7 	c #2B1527",
"8 	c #C8A8CC",
"9 	c #F9C0CB",
"0 	c #9A0E1D",
"a 	c #A9D3F4",
"b 	c #B52039",
"c 	c #1E74CC",
"d 	c #170204",
"e 	c #215498",
"f 	c #2D2442",
"g 	c #2A345E",
"h 	c #20447C",
"i 	c #4A192F",
"j 	c #191426",
"k 	c #661C34",
"l 	c #DB2C44",
"m 	c #D884A0",
"n 	c #CBB3D4",
"o 	c #3A7FD0",
"p 	c #37060C",
"q 	c #D25A74",
"r 	c #2567BC",
"s 	c #68264C",
"t 	c #3E457D",
"u 	c #475AA7",
"v 	c #760B1A",
"w 	c #1D2340",
"x 	c #56A2EC",
"y 	c #E2627C",
"z 	c #67B0F3",
"A 	c #154C8B",
"B 	c #570914",
"C 	c #165CA8",
"D 	c #E9D1DC",
"E 	c #103C6E",
"F 	c #040B17",
"G 	c #81142C",
"H 	c #081C33",
"I 	c #CD2038",
"J 	c #E53C54",
"K 	c #FADEE4",
"L 	c #B5D6F4",
"M 	c #F490A1",
"N 	c #B2BEE8",
"O 	c #3F91E3",
"P 	c #72427C",
"Q 	c #981524",
"R 	c #290B18",
"S 	c #C2DAF4",
"T 	c #C2182E",
"U 	c #391427",
"V 	c #77B6F4",
"W 	c #2C80D9",
"X 	c #1B6BC1",
"Y 	c #0D2C51",
"Z 	c #304C8A",
"` 	c #E89EB0",
" .	c #5BABEE",
"..	c #906AA8",
"+.	c #484E92",
"@.	c #D7C2D8",
"#.	c #483869",
"$.	c #160B16",
"%.	c #F7B0BD",
"&.	c #EE586D",
"*.	c #F37386",
"=.	c #8E0C1D",
"-.	c #18447D",
";.	c #96C6F4",
">.	c #9C2E54",
",.	c #175499",
"'.	c #9DB7E9",
").	c #EEC7D4",
"!.	c #215CA7",
"~.	c #761227",
"{.	c #BADBF8",
"].	c #EC5E74",
"^.	c #0C0204",
"/.	c #47111F",
"(.	c #2C020B",
"_.	c #E8485F",
":.	c #671325",
"<.	c #DBEBFC",
"[.	c #3F549A",
"}.	c #283D72",
"|.	c #F57F91",
"1.	c #3A88DE",
"2.	c #B594C2",
"3.	c #1F335E",
"4.	c #0B1426",
"5.	c #CE3E5C",
"6.	c #C31E34",
"7.	c #2776CC",
"8.	c #3B2447",
"9.	c #151E38",
"0.	c #A44A7C",
"a.	c #4E76C4",
"b.	c #6E86D4",
"c.	c #967AB4",
"d.	c #B0A0CC",
"e.	c #CA729C",
"f.	c #E6F0FC",
"g.	c #663767",
"h.	c #625AA4",
"i.	c #6E66B4",
"j.	c #A11B37",
"k.	c #A04274",
"l.	c #B06494",
"m.	c #3272C8",
"n.	c #7E427C",
"o.	c #B2B0D8",
"p.	c #AA5284",
"q.	c #A3CDF4",
"r.	c #581831",
"s.	c #DECEE4",
"t.	c #6E7AC8",
"u.	c #CC96B8",
"v.	c #7E96DC",
"w.	c #A69ECC",
"x.	c #DA6C8C",
"y.	c #F6A0AE",
"z.	c #DBB6CF",
"A.	c #B676A4",
"B.	c #463058",
"C.	c #62325C",
"D.	c #FAD7DC",
"E.	c #882448",
"F.	c #573869",
"G.	c #B03C64",
"H.	c #E1344C",
"I.	c #F26C80",
"J.	c #4398EC",
"K.	c #65A9EE",
"L.	c #3498E4",
"M.	c #46AAEC",
"N.	c #271B33",
"O.	c #262C50",
"P.	c #370D1A",
"Q.	c #3D4B8D",
"R.	c #1D2D54",
"S.	c #4A6EBC",
"T.	c #CE6E94",
"U.	c #4A223C",
"V.	c #560F1E",
"W.	c #6A4C88",
"X.	c #F9B8C3",
"Y.	c #EE5066",
"Z.	c #3D69B4",
"`.	c #CA2C40",
" +	c #CAC7E4",
".+	c #B9172C",
"++	c #4E9AEC",
"@+	c #214C89",
"#+	c #D9A5BF",
"$+	c #58569C",
"%+	c #B64A7C",
"&+	c #72396C",
"*+	c #F698A6",
"=+	c #2F88DF",
"-+	c #F68899",
";+	c #362E54",
">+	c #F6A8B4",
",+	c #D1E5FC",
"'+	c #1E3C6C",
")+	c #901326",
"!+	c #544C8C",
"~+	c #D7263D",
"{+	c #3E76D4",
"]+	c #70B4F4",
"^+	c #7E8ED4",
"/+	c #BCA2C8",
"(+	c #D87694",
"_+	c #A41429",
":+	c #468AD8",
"<+	c #8D4074",
"[+	c #564684",
"}+	c #A60E21",
"|+	c #36335E",
"1+	c #FAD1D6",
"2+	c #533159",
"3+	c #305AA8",
"4+	c #BA5684",
"5+	c #692241",
"6+	c #E74259",
"7+	c #3C1A34",
"8+	c #EAA6BC",
"9+	c #DACADF",
"0+	c #5A1E3C",
"a+	c #745AA0",
"b+	c #2386D9",
"c+	c #B68ABC",
"d+	c #DC8AA4",
"e+	c #B26A9C",
"f+	c #BAB6DC",
"g+	c #76325C",
"h+	c #8DC6F4",
"i+	c #58A6EC",
"j+	c #7CBAF4",
"k+	c #EEF6FC",
"l+	c #336EC4",
"m+	c #B82644",
"n+	c #7E5290",
"o+	c #1E7AD0",
"p+	c #236EC2",
"q+	c #A23664",
"r+	c #425AA4",
"s+	c #C02644",
"t+	c #683E74",
"u+	c #543E74",
"v+	c #C8324C",
"w+	c #BE3244",
"x+	c #522949",
"y+	c #3490E5",
"z+	c #E25E7C",
"A+	c #F26478",
"B+	c #FAC8D1",
"C+	c #343C70",
"D+	c #72A6EC",
"E+	c #CF263C",
"F+	c #F67A8C",
"G+	c #768ECC",
"H+	c #367ACC",
". . . . . . . . . . . . . . . . . . . . . . . . . . . . . ^.. ^.^.^.^.^.d ^.^.d ^.^.^.^.. . . . . . . . . . . . . . . . . . . . . . . . . . . . . . . ",
". . . . . . . . . . . . . . . . . . . . . . . . . . ^.^.^.d d d d , , , , , , , d , d d d d d ^.^.. . . . . . . . . . . . . . . . . . . . . . . . . . ",
". . . . . . . . . . . . . . . . . . . . . . . . ^.^.d , , , (.(.p p p p % p % p p p (.(.(., d d d ^.^.. . . . . . . . . . . . . . . . . . . . . . . . ",
". . . . . . . . . . . . . . . . . . . . . ^.^.d , , (.(.p % % B B B _ _ _ _ _ _ _ B B B % % p (., , d d ^.. . . . . . . . . . . . . . . . . . . . . . ",
". . . . . . . . . . . . . . . . . . . ^.^.d , , (.p % B _ _ v =.=.}+.+6 6 6 6 6 .+0 =.v _ _ _ B % p (., , d . . . . . . . . . . . . . . . . . . . . . ",
". . . . . . . . . . . . . . . . . . ^.d d (.(.% B _ _ =.}+T H.&.*.-+>+%.X.X.X.%.>+|.A+J l { 0 @ _ B B p (., , d ^.. . . . . . . . . . . . . . . . . . ",
". . . . . . . . . . . . . . . . ^.d d (.p % B _ v }+I Y.-+>+B+D.D.D.1+B+B+B+B+1+1+1+D.B+9 y.*.6+T 0 v _ % % (., d ^.. . . . . . . . . . . . . . . . . ",
". . . . . . . . . . . . . . . ^.d , p p B _ @ { J |.%.1+D.B+%.*+|.A+_.J J J J 6+&.*.-+>+9 D.K 1+>+A+l }+v _ % p (., d ^.. . . . . . . . . . . . . . . ",
". . . . . . . . . . . . . ^.d d , p % _ v { _.*+B+K B+*+I.J I { }+=.@ @ v v v @ =.0 }+T l Y.-+X.D.D.X.F+l }+v B % (., d ^.. . . . . . . . . . . . . . ",
". . . . . . . . . . . . ^.^., (.% B v }+J M 1+D.B+|._..+0 v v _ _ B B B B B B B B B _ v v =.}+~+&.M 1+D.9 *.I =._ B p (.d d . . . . . . . . . . . . . ",
". . . . . . . . . . . ^.d , (.% B @ I *.B+K 9 F+H.}+@ _ _ B % % p p p (.(.(.p p p p % % B B _ v =.{ J -+1+K %.Y.{ v B p (., ^.. . . . . . . . . . . . ",
". . . . . . . . . . ^.^., p % _ 0 H.>+K 1+-+l }+v _ B % p (.(., , , d , d d d d d , , , (.p % % B _ @ { _.>+K D.|.I v B % (.d d ^.. . . . . . . . . . ",
". . . . . . . . . ^.d , (.B _ { ].B+K X._.{ v _ B % p (., , d ^.^.^.^.^.^.^.^.^.^.^.d d d , , (.% % B _ =.I *.B+K >+H.=.B % (.d ^.. . . . . . . . . . ",
". . . . . . . . ^.^., (.B _ }+I.1+D.M l =._ B % p , , d ^.^.^.^.. . . . . . . . . . . . ^.^.d d , (.p % B _ }+_.X.K X.6+=.B % (.d d . . . . . . . . . ",
". . . . . . . ^.d d p % _ .+*.D.D.I..+@ _ % p , , ^.^.^.. . . . . . . . . . . . . . . . . . . ^.^.d , (.% % _ =.l y.K 9 6+=._ % (.d ^.. . . . . . . . ",
". . . . . . . ^., (.% _ { F+D.1+I.{ _ B % (., d ^.^.. . . . . . . . . . . . . . . . . . . . . . . ^.^.d , p % B @ I *+D.9 _.=.B p (.d ^.. . . . . . . ",
". . . . . . ^.d (.% _ }+A+D.1+&._+_ B p , d ^.^.. . . . . . . . . . . . . . . . . . . . . . . . . . ^.^.d , (.% B v I M K 9 H.@ B p , d . . . . . . . ",
". . . . . ^.d , p B =._.1+1+]._+_ B p , d ^.^.. . . . . . . . . . . . . . . . . . . . . . . . . . . . . . ^., , % B v I *+K %.I v B (., d . . . . . . ",
". . . . . ^., p B v l X.K |.{ _ % p , d ^.. . . . . . . . . . . . . . . . . . . . . . . . . . . . . . . . . ^.d (.p B @ ~+%.K -+{ _ % (.d ^.. . . . . ",
". . . . ^.d (.% _ { *+K y.T v B p , d ^.. . . . . . . . . . . . . . . . . . . . . . . . . . . . . . . . . . ^.^.d (.% B =.J B+1+Y.=.B p , d ^.. . . . ",
". . . ^.d , p _ =.&.D.9 H.v B p , d . . . . . . . . . . . . . . . . . . . . . . . . . . . . . . . . . . . . . . ^.d (.% _ 0 I.K X.l v B (.d ^.. . . . ",
". . . ^.d (.% _ ~+X.D.A+0 _ % (.d ^.. . . . . . . . . . . . . . . . . . . . . . . . . . . . . . . . . . . . . . ^.^., p % v I y.K |.{ _ % (.d ^.. . . ",
". . . d , % _ 0 I.D.*+{ v % (., ^.^.. . . . . . . . . . . . . . . . . . . . . . . . . . . . . . . . . . . . . . . ^.^., p B @ 6+1+B+6+@ B (., ^.. . . ",
". . ^.d (.% v l 9 1+_.=.B p , d . . . . . . . . . . . . . . . . . . . . . . . . . . . . . . . . . . . . . . . . . . ^.d (.% _ }+F+K M { _ % , d ^.. . ",
". ^.d , p _ 0 I.D.M { _ % (.d ^.. . . . . . . . . . . . . . . . . . . . . . . . . . . . . . . . . . . . . . . . . . ^.d , p B v l X.B+J v B (.d ^.. . ",
". . d (.% _ I %.B+6+@ B p , d . . . . . . . . . . . . . . . . . . . . . . ^.. . . . . . . . . . . . . . . . . . . . . . d , % _ }+|.D.|.}+B % , d . . ",
". ^., p B =._.1+y.T v % (.d ^.. . . . . . . . . . . . . . . . . ^.^.d d d d d d d . ^.. . . . . . . . . . . . . . . . . d d p B v J B+X.~+_ % (.d . . ",
". d , p _ }+-+D.A+0 _ p , ^.. . . . . . . . . . . . . . . . . ^.d d , , (.(.(., , d d d . . . . . . . . . . . . . . . . ^.d (.% v .+y.1+Y.=.B (., ^.. ",
"^.d (.% v l 9 B+J v B p , ^.. . . . . . . . . . . . . . . ^.d d (.(.% % % % % % % (., , d . . . . . . . . . . . . . . . . ^., p _ =.].1+-+}+_ p , d . ",
"^.d p B @ &.1+>+T _ % , d ^.. . . . . . . . . . . . . . ^.d , (.% B _ _ @ @ @ _ _ B % (., d d . . . . . . . . . . . . . . ^.d (.B v H.B+X.~+_ % (.d ^.",
"^., p _ }+|.D.F+}+_ % , ^.^.. . . . . . . . . . . . . d d , p B B =.{ l _.Y._.l { =._ B p , d ^.. . . . . . . . . . . . . ^.d (.% v .+y.B+6+@ B (.d ^.",
"^., % _ { *+D.Y.@ B p d ^.. . . . . . . . . . . . . ^.d , p B v T &.y.9 1+1+D.B+y.&.T v B p , d ^.. . . . . . . . . . . . . ^., % _ }+|.D.I.=.B p d ^.",
"d , % _ E+%.9 H.v B (.d ^.. . . . . . . . . . . . . ^., p B @ ~+*+D.D.X.M -+*+X.1+D.*+l @ B p , d . . . . . . . . . . . . . ^.d p B =.A+D.M { _ p , ^.",
"d (.% v J B+%.T _ % (.d . . . . . . . . . . . . . ^.d (.% _ ~+>+K B+I.l { }+{ I A+9 K %.~+v % (.d ^.. . . . . . . . . . . . ^., p B @ _.1+>+b _ % , d ",
"d (.B @ &.1+y.{ v % , d . . . . . . . . . . . . . d , p B }+F+K %.H.}+@ @ v @ @ }+J X.K -+{ _ p , d . . . . . . . . . . . . . d (.B v H.B+X.`._ % , d ",
"d p B )+|.D.-+}+_ p , ^.^.. . . . . . . . . . . ^.d (.% _ l 9 B+6+0 v _ B % B _ v 0 _.B+B+H.v % (.d ^.. . . . . . . . . . . ^.d (.% v I %.B+_.v % , d ",
"d (.B Q M D.*.0 _ p , ^.. . . . . . . . . . . . . d (.B =.].D.-+{ @ B % p p p % B @ { M D.I.0 B (.d ^.. . . . . . . . . . . . d (.% _ T >+1+&._ % (.d ",
", p B Q M D.I.0 _ p , ^.. . . . . . . . . . . . ^., p B }+|.1+A+0 v B p (., , p B v 0 A+D.|.}+B p , ^.. . . . . . . . . . . ^.^.(.% v T >+1+].v B (.d ",
"d p B Q M D.I.0 _ p , ^.. . . . . . . . . . . . ^.d p B { -+1+&.=._ B (., , , (.% _ =.&.1+-+}+B p d ^.. . . . . . . . . . . ^.^., % _ .+>+1+z+v % (.d ",
", p B Q M D.I.=._ p d d . . . . . . . . . . . . ^., p B 0 |.D.I.0 v B p (., (.% B v }+I.D.*.0 B (., ^.. . . . . . . . . . . . d , % v T >+1+]._ B (.d ",
"d p B Q -+D.*.0 _ % , ^.. . . . . . . . . . . . ^.d (.B @ &.D.>+T =._ B p p % B _ @ T >+1+_.@ B (.d ^.. . . . . . . . . . F . d R % _ T %.1+&._ % , d ",
", (.B @ I.D.M }+_ p , d . . . . . . . . . . . . . d (.% _ ~+X.D.*.{ @ v _ _ B v @ { I.D.>+T _ % , d . . . . . . . F F F F F $.$., V.v ~+9 ).6+_ % (.d ",
"d (.B v _.B+y.T _ % , d . . . . . . . . . . . . . ^., p B 0 A+D.1+*.T 0 @ @ @ 0 I *.1+D.&.=.B p d d . . . . . . F / / H / / 4.j R /.v J B+%.`._ % , d ",
"d (.% v H.B+%.I v % (.d ^.. . . . . . . . . . . . ^.d (.% _ { |.D.D.y.&.H.~+H.].>+D.D.F+}+_ % , d ^.. . . . F F / / H H = = 9.7 U r.G &.1+y..+_ p , ^.",
"d , % _ I >+B+H.v B (.d ^.. . . . . . . . . . . . . ^.d (.% _ { ].%.D.1+).X.9 1+D.X.&.{ _ % (.d ^.. . . . . F F H = Y E E ^ Y w 7+r.)+*.D |._+B p , ^.",
"^., p _ }+M 1+&.=.B p d ^.. . . . . . . . . . . . . . d , p % _ =.I z+*+8+X.8+M y I =._ % (., d . . . . . F / H = Y * y+x ) p+O.8.r.j.M 1+&.@ B p d ^.",
"^., p B 0 A+1+-+}+_ % , d . . F F F F F F F F F . F . ^.d , R % /._ G j.b 6 b _+G _ V.p p d ^.^.. . F F / F H H Y E c h+: ;.o O.~ k 6 8+).l v % (.d ^.",
". d (.B v J B+%.T v % (.$.F / F / / / / / / / / / F F F F $.$.R U U i i 0+0+0+0+i U P.R d $.^.. F F F / / H = Y ^ E b+a <.L :+C+2+s ( ).` T _ % (.d . ",
". d , % _ .+y.1+_.@ V.P.j j H H H = = = = H H H H H / F F F j $.N.N.f 8.f 8.f 8.f N.j j $.F F F / / / = = = ^ E # A + a f.L :+C+2+E.m D *.0 B p , ^.. ",
". ^., p B 0 I.1+-+_+r.U 7 9.= Y Y ^ ^ Y ^ ^ ^ ^ Y = = H H 4./ 9.9.w R.3.g 3.g 3.R.w w 4./ F / / / = = Y ^ E E # ' ,.=+L f.S [ t 2+G.z.).J v B (.d ^.. ",
". ^., (.B v J ).X.6 k U.f R.^ # ' ' ' A E # E A A E Y = = = = = Y ^ E A C C ,.A E ^ Y = = H H = = Y ^ # ' C C ' ' C O L f.L [ ; g+| @.8+T _ % (.d ^.. ",
". . d , % _ .+` D x.E.x+|+}.* 4 i+z  .4 X A c 4 4 o+A ^ Y Y Y ^ # * =+i+z z z i+=+C E ^ Y = = Y ^ # * =+i+z  .) =+p+x S f.S [ ; <+u.9+q )+B p , ^.. . ",
". . ^., (.B =.y D #+q+F.< 7.]+{.,+,+{.a j+O  .a {.M.C E E E E # b+]+L : : : {.,+a ]+c E E ^ ^ E # c ]+{.,+,+{.{.q.]+;.,+k+L [ [+l.! #+s+v % (.d ^.. . ",
". . ^.d (.% _ s+#+ +A.t+X j+<.f.: h+V j+a q.L f.<.z C A # # A o+h+<.<.a ]+z j+a <.<.V X E # E # X j+<.f.,+;.j+V q.S ,+f.f.S [ n+d. +(+)+V.p , d . . . ",
". . . d d P.V.G | ! o.} ) : f.: K.o+X p+J.q.<.f.f.j+* A A A C  .<.<.;.O * C X O q.<.: L.' A A C ) : f.:  .7.X c O q.<.f.f.L [ c.N 8 w+:.% (.d ^.. . . ",
". . . ^.d R /.:.>.2.'.7.;.f.,+z r e ,.C C ++S f.<.j+* C ,.' + a f.{.O ,.,.,.A ' L.a a M.C A ' c h+f.,+z r C e !.!.O L f.f.S [ ] N | 3 V.P., d . . . . ",
". . . . d d P.i s p.G+) : f.;.7.!.e @+A ,.X j+<.<.j+* C ,.C J.: <.j+p+A A # -.# C b+4 o+' ' ' y+{.f.;.+ ,.A A ,.e r ]+<.f.{.[ '.c+> k /.R d ^.. . . . ",
". . . . . d 7 7+x+&+} V ,+<.V r Z Z h A A ,.++: <.j+X C C * z <.,+ .C A E E E E E A ' ' A ' C  .,+<.V * A A -.h e e ++: k+S ++] p.s i P., ^.. . . . . ",
". . . . . ^.$.N.~ u+5 ;.<.,+x 3+Q.< }.h A A 1.{.<.j+X * C * V <.,+J.' A E ^ ^ ^ ^ E E # A ' C z <.,+i+C A -.-.h Z 1 1.L f.S [ ..g.x+U R d . . . . . . ",
". . . . . F $.7 f #.Z.;.<.,+x u +.Q.< < h e =+a <.j+X * * * j+f.: J.' # ^ ^ Y ^ E E # A ' ' * z <.: x ,.@+-.}.< Z [.1.L f.L [ W.2+8.7 $.^.. . . . . . ",
". . . . . . F 9.f |+5 ;.<.,+i+a.a+!+t t @+e 1.L <.j+X * * * ]+<.,+++' A E ^ ^ ^ E E # # ' ,.*  .<.,+i+C @+h < t +.r+y+S f.{.[ ; B.f j $.^.. . . . . . ",
". . . . . F F 4.w g 1 j+<.<.V :+^+a+!++.[.e ++: <.V * !.C * K.,+,+i+C A # E E E E A ' ' # ' C i+,+<.j+* 1 Z Q.+.$+} x : k+S [ t g N.j ^.. . . . . . . ",
". . . . . . F 4.= 3.h x ,+f.q.1.2 v.i.$+r+r j+<.f.j+X !.!.C J.,+f.$ p+' A # # A * L.L.b+' ,.,.1.{.f.q.o 3+[.[.h.t.H+j+<.k+L [ < O.9.4.F . . . . . . . ",
". . . . . . F F 9.Y '+W q.f.,+]+:+K.2 t.Z.x : f.<.j+* !.e ,.+ q.f.: x C ,.' ' C ) a : L.C @+e c $ f.<.j+m.r+i.b.:+x : <.f.L [ }.R.H / . . . . . . . . ",
". . . . . . . F 4.Y 3.'  .,+f.: ]+1.o =+x L f.f.f.j+r 1 1 e C  .,+f.{.x m.X p+x {.<.a b+A @+Z !.J.: f.,+j+1.H+1.x S <.<.f.L :+'+w H F F . . . . . . . ",
". . . . . . F F / = ^ -.c $ <.f.,+q.$ ;.{.L : f.<.j+* [.Z < Z c $ <.f.{.h+j+;.{.<.:  .!.< C+t Q.p+V <.f.,+q.;.;.{.L S <.<.q.1.^ = 4./ . . . . . . . . ",
". . . . . . . F / H Y E ,.+ j+{.,+,+{.a j+x $ ,+f.j+r !+!+; t Z c  .a : : : : {.h+) * t u+#.F.t+W.7. .a ,+: : L $ x K.j+$ K.c ^ = / F . . . . . . . . ",
". . . . . . . F / 9.Y E A ,.X y+) i+) 4 7.S.x S <.V l+..& &+g.F.; !.o+O ) i+) y+c 1 F.C.g+> k.e+2.] o + J.i+) =+p+e ,.* * C # = H F F . . . . . . . . ",
". . . . . . . F / H Y E A C !.* * r * r m.l+J.S <.]+H+] d.c+l.p.k.<+P +.+.[.[.[+n.<+0.4+T.u.n  + +o.- n+Z e e < }.h }.E ^ Y = H / F F . . . . . . . . ",
". . . . . . . F F H Y E ,.C * C r r r l+l+l+K.: ,+x S.w.f+@. +n f+8 2.- - - - c+/+8 n @.s.s.@.u.T.G.> C.2+B.|+g g R.R.= = H / / F F . . . . . . . . . ",
". . . . . . . F / H Y C 4 M. .y+* r * r * 1.a <.a b+[+<+%+| d+#+z. +9+ + +!  + + +@.z.` d+y 5.b 3 k 0+U.8.f N.9.9.H H H H / F F F . . . . . . . . . . ",
". . . . . . . . F / Y ' L.a ,+a x + c 7.J.;.,+:  .!.#.x+5+3 j.m+5.q (+m m m m m x.( w+b _+)+~._ V./.U 7 7 j j j F 4.F F F F F F . . . . . . . . . . . ",
". . . . . . . F F / = ^ * L.h+L q.$ ]+j+q.a $ J.* }.;+8.U.i V.:._ ~.G 3 3 3 G 3 ~.v :._ B B % % p (.R $.$.$.F F F F F . F . . . . . . . . . . . . . . ",
". . . . . . . . F / H = ^ ' c J. .z z  .i+y+c A ^ R.N.7 R P.P.P.% /.% B V.B V.B B % % % p p (., , d ^.^.. . . . . . . . . . . . . . . . . . . . . . . ",
". . . . . . . . . F / H = ^ ^ # A C * C ,.# ^ Y = 9.H j d $., , (.(.(.(.(.(.(.(.(.(., , , d d d ^.^.^.. . . . . . . . . . . . . . . . . . . . . . . . ",
". . . . . . . . . F F / H = = Y ^ ^ Y Y Y Y Y = H 4.F F ^.^.d ^.d d d d d d d d d d d ^.^.^.. . . . . . . . . . . . . . . . . . . . . . . . . . . . . ",
". . . . . . . . . . F F F / H H H = = = H H / / / F F . . . . . . ^.^.^.^.^.^.^.. . ^.. . . . . . . . . . . . . . . . . . . . . . . . . . . . . . . . ",
". . . . . . . . . . . F F F F F / / / / / F / F . . . . . . . . . . . . . . . . . . . . . . . . . . . . . . . . . . . . . . . . . . . . . . . . . . . ",
". . . . . . . . . . . . . F F F F F F F F F F F . . . . . . . . . . . . . . . . . . . . . . . . . . . . . . . . . . . . . . . . . . . . . . . . . . . "};
