/* XPM */
static char * grip_xpm[] = {
"75 78 257 2",
"  	c None",
". 	c #040204",
"+ 	c #1182DF",
"@ 	c #870919",
"# 	c #0B447B",
"$ 	c #8B83C3",
"% 	c #48060C",
"& 	c #8E427C",
"* 	c #88C5F7",
"= 	c #4D447D",
"- 	c #072441",
"; 	c #C40C22",
"> 	c #0F64B3",
", 	c #39ADF4",
"' 	c #482546",
") 	c #8BA0D8",
"! 	c #C84773",
"~ 	c #280205",
"{ 	c #2B457C",
"] 	c #CDC3DD",
"^ 	c #C42B55",
"/ 	c #4E82D0",
"( 	c #292342",
"_ 	c #852854",
": 	c #680714",
"< 	c #2098EF",
"[ 	c #C6A9CA",
"} 	c #682549",
"| 	c #3362AF",
"1 	c #C9648C",
"2 	c #0D5498",
"3 	c #CA82A7",
"4 	c #031425",
"5 	c #DD0E27",
"6 	c #A70B1D",
"7 	c #5DB1F4",
"8 	c #0F76D2",
"9 	c #4C66B0",
"0 	c #A6D7FC",
"a 	c #CAE4FC",
"b 	c #8464A8",
"c 	c #09345F",
"d 	c #271428",
"e 	c #283560",
"f 	c #2B5498",
"g 	c #E72841",
"h 	c #471428",
"i 	c #2D84DA",
"j 	c #483461",
"k 	c #C85C86",
"l 	c #671933",
"m 	c #6ABFF4",
"n 	c #EA849C",
"o 	c #ADC0E9",
"p 	c #ADA2D0",
"q 	c #6E4480",
"r 	c #178DE9",
"s 	c #891833",
"t 	c #E2CEDE",
"u 	c #E8A7B9",
"v 	c #1F63B0",
"w 	c #1B447A",
"x 	c #A9284F",
"y 	c #F43A55",
"z 	c #569ADC",
"A 	c #170204",
"B 	c #359DF4",
"C 	c #1B5396",
"D 	c #171428",
"E 	c #A6447B",
"F 	c #D31C37",
"G 	c #38020C",
"H 	c #3D447C",
"I 	c #E21C35",
"J 	c #770914",
"K 	c #1A3865",
"L 	c #582547",
"M 	c #580611",
"N 	c #383460",
"O 	c #E7C4D5",
"P 	c #68376A",
"Q 	c #970A1C",
"R 	c #3A2547",
"S 	c #F56479",
"T 	c #1F75CD",
"U 	c #EB93A9",
"V 	c #B57FAF",
"W 	c #172443",
"X 	c #4A549C",
"Y 	c #D20E26",
"Z 	c #A71A3B",
"` 	c #8DCBFB",
" .	c #B16295",
"..	c #381427",
"+.	c #F5546C",
"@.	c #F9B0BC",
"#.	c #E64866",
"$.	c #7CADEE",
"%.	c #0E6CC1",
"&.	c #8BB4EC",
"*.	c #1C82DF",
"=.	c #4DADF4",
"-.	c #3A5397",
";.	c #F22C47",
">.	c #581429",
",.	c #041C33",
"'.	c #0B3C6C",
").	c #7BC1F5",
"!.	c #26A5F3",
"~.	c #0C4C89",
"{.	c #B60B1E",
"].	c #6C6BB3",
"^.	c #FAE4E8",
"/.	c #AAB5E0",
"(.	c #208FEC",
"_.	c #573665",
":.	c #A5396F",
"<.	c #0E5CA7",
"[.	c #B7DCFC",
"}.	c #7798D1",
"|.	c #3C4C8B",
"1.	c #EE1E39",
"2.	c #280C18",
"3.	c #C13C69",
"4.	c #7084C7",
"5.	c #863C74",
"6.	c #A7D1FA",
"7.	c #180C18",
"8.	c #AB5890",
"9.	c #9CD0FC",
"0.	c #89589B",
"a.	c #8D97D3",
"b.	c #C695B8",
"c.	c #70559A",
"d.	c #B591BE",
"e.	c #3379C9",
"f.	c #8B75B7",
"g.	c #A675AA",
"h.	c #C777A0",
"i.	c #4878AC",
"j.	c #C7B7D6",
"k.	c #F67689",
"l.	c #E9F3FC",
"m.	c #2B8FEA",
"n.	c #7C8ECA",
"o.	c #DAEDFC",
"p.	c #7674BB",
"q.	c #50BBF4",
"r.	c #76A5EA",
"s.	c #FAD4DA",
"t.	c #668EDC",
"u.	c #9DA7D9",
"v.	c #951B3A",
"w.	c #773363",
"x.	c #9C8FC2",
"y.	c #9C84BB",
"z.	c #D42C51",
"A.	c #992B56",
"B.	c #7B2952",
"C.	c #BA4778",
"D.	c #5B58A1",
"E.	c #DB90A8",
"F.	c #66B8F4",
"G.	c #3EA4F4",
"H.	c #C0E2FC",
"I.	c #D886A3",
"J.	c #9868A5",
"K.	c #9DB6E7",
"L.	c #73BAF4",
"M.	c #9B4780",
"N.	c #955997",
"O.	c #7DCCFC",
"P.	c #4182CC",
"Q.	c #D6476A",
"R.	c #D7A8C2",
"S.	c #DA5979",
"T.	c #F68395",
"U.	c #7A4A8A",
"V.	c #FAA4B1",
"W.	c #B62D55",
"X.	c #5F9FE9",
"Y.	c #FAC4CD",
"Z.	c #F893A3",
"`.	c #F64760",
" +	c #D9C2D7",
".+	c #B9A3C9",
"++	c #B61C40",
"@+	c #BCB6DA",
"#+	c #D23960",
"$+	c #C1CAE9",
"%+	c #6072C4",
"&+	c #4E4C8B",
"*+	c #2F6BB1",
"=+	c #771831",
"-+	c #B85989",
";+	c #B878A6",
">+	c #DB7697",
",+	c #5B67B2",
"'+	c #BAC2E5",
")+	c #F66C81",
"!+	c #F55C73",
"~+	c #F9B8C2",
"{+	c #735CA6",
"]+	c #BB89B4",
"^+	c #B097C7",
"/+	c #68C8F8",
"(+	c #B06B9C",
"_+	c #8182BC",
":+	c #B63969",
"<+	c #983C73",
"[+	c #E2142E",
"}+	c #9EBEEC",
"|+	c #9E78B4",
"1+	c #D4B8D2",
"2+	c #482D53",
"3+	c #90AAE2",
"4+	c #2D4C8A",
"5+	c #292C52",
"6+	c #273C6E",
"7+	c #1A4C88",
"8+	c #171C36",
"9+	c #390B1B",
"0+	c #582C54",
"a+	c #362B52",
"b+	c #763C74",
"c+	c #2B9AF3",
"d+	c #7969B2",
"e+	c #CB6D94",
"f+	c #030C17",
"g+	c #890F24",
"h+	c #470B1A",
"i+	c #8E4D8E",
"j+	c #072C50",
"k+	c #C51328",
"l+	c #8C2F5E",
"m+	c #670F23",
"n+	c #672C56",
"o+	c #271B35",
"p+	c #2C5DA9",
"q+	c #E93049",
"r+	c #481C37",
"s+	c #483C70",
"t+	c #6D4C8F",
"u+	c #882041",
"v+	c #1E6CC1",
"w+	c #A93161",
"x+	c #50A5F2",
"y+	c #1A5CA6",
"z+	c #A94D84",
"A+	c #781022",
"B+	c #383C6E",
"C+	c #9B0F1E",
"D+	c #172C50",
"E+	c #4B5BA7",
"F+	c #381C36",
"G+	c #3B5CA8",
"H+	c #591C39",
". . . . . . . . . . . . . . . . . . . . . . . . . . . . . . . . . . . . . . . . . . . . . . . . . A A ~ G G G G ~ A A A . . . . . . . . . . . . . . . ",
". . . . . . . . . . . . . . . . . . . . . . . . . . . . . . . . . . . . . . . . . . . . . . . A A ~ G % M M M M % G ~ ~ A A A . . . . . . . . . . . . ",
". . . . . . . . . . . . . . . . . . . . . . . . . . . . . . . . . . . . . . . . . . . . . . . A A G % : ; 5 {.J : M % G ~ A A A . . . . . . . . . . . ",
". . . . . . . . . . . . . . . . . . . . . . . . . . . . . A A A A A A A A A A A . . . . . . . A ~ % : {.)+Y.Z.y 5 @ : M % G ~ A A . . . . . . . . . . ",
". . . . . . . . . . . . . . . . . . . . . . . . . A A A A A A ~ ~ ~ ~ A ~ ~ A A A A A A . A A ~ G M : 1.s.^.s.^.V.y 5 J : % G ~ A A . . . . . . . . . ",
". . . . . . . . . . . . . . . . . . . . . . A . A A A ~ ~ G G G G G % G G G G G G G ~ ~ ~ A ~ G % : 6 )+^.s.T.Z.Y.s.Z.;.{.: M G ~ A A . . . . . . . . ",
". . . . . . . . . . . . . . . . . . . . . A A ~ ~ G G % % % M M : M M : : M M M M % % % G G G % M J 5 @.^.T.k+; g k.s.s.)+5 J M % G A A . . . . . . . ",
". . . . . . . . . . . . . . . . . . A A A ~ ~ % % % M : : J @ Q 6 {.{.; ; {.6 @ : : : : M M M : J @ ;.s.s.y 6 Q Q ; y ~+^.V.1.@ M % G A A A . . . . . ",
". . . . . . . . . . . . . . . . A A A ~ G % % M : : 6 Y 5 ;.`.+.k.k.T.T.T.k.!+`.g [+5 {.@ J J @ @ {.)+^.V.5 Q @ J J @ [+T.^.~+;.Q M % G A A . . . . . ",
". . . . . . . . . . . . . . . A A ~ G % % : : @ 5 ;.!+Z.~+s.s.s.~+@.@.V.V.~+s.s.s.Y.@.T.y 5 6 Q 6 [+~+^.S Q J : M M : J ; +.s.s.y Q M % G A A . . . . ",
". . . . . . . . . . . . . . A A ~ G M M : 6 [++.V.s.s.@.k.!+y ;.[+[+[+[+[+1.1.y !+T.~+^.^.V.I Q {.`.^.s.;.@ : % % % % M : Q y s.s.y Q M % ~ A A . . . ",
". . . . . . . . . . . . A A ~ G % M : 6 [+S ~+s.~+)+;.5 {.Q J J J : : : : J J @ Q ; y ~+l.s.y ; Y Z.^.Z.; J % G ~ ~ ~ G M : @ y Y.s.;.@ M G ~ A A . . ",
". . . . . . . . . . . . A ~ G % : J 5 !+Y.s.V.+.[+6 J J : : M M M % % % % M : J @ 6 Y V.^.V.I Y y s.^.+.Q : G ~ A A A ~ G % : @ y Y.Y.1.J M G ~ A . . ",
". . . . . . . . . . . A ~ G % : {.;.V.s.V.`.5 @ : : M % % % G G G G G ~ ~ G % : J Q I Y.^.)+; ; )+^.Y.1.J M G A A . . A ~ G % : Q `.s.V.5 : M G A . . ",
". . . . . . . . . A A ~ G M : 5 S s.s.S [+@ : : M % G G ~ ~ A A A A A A A ~ G M J Q y ^.s.y [+[+V.^.T.{.: % ~ A A . . . A ~ G % : {.)+s.+.Q M % ~ A A ",
". . . . . . . . A A ~ G M : 5 T.^.~+y {.J M % G G ~ ~ A A A A . A . . . A ~ G M J {.k.^.V.[+Y `.s.^.y @ M G ~ . . . . . . A ~ G M J [+V.s.1.J M G ~ A ",
". . . . . . . . A ~ G M J 5 V.s.Z.1.@ : M % G ~ A A A . . A . . . . . A A ~ G M J [+~+^.)+; k+k.^.~+5 J % ~ A . . . . . . . A ~ % M @ y ^.Z.Y : % ~ A ",
". . . . . . A A ~ G M : [+V.^.Z.5 : M % G ~ A A . . . . . . . . . . . . A ~ % : @ `.^.s.y 5 1.~+^.)+6 : % ~ A . . . . . . . A A ~ % : ; T.s.y @ M G ~ ",
". . . . . A A ~ G % : 5 Z.^.k.Y J M % G ~ A A . . . . . . . . . . . . . A ~ % : ; Z.^.Z.k+Y `.s.s.;.@ M G ~ A . . . . . . . . A ~ G M J 1.Y.V.5 : % ~ ",
". . . . . A A G % : {.k.^.T.; : M G ~ ~ A . . . . . . . . . . . . . . . A G M J 1.s.^.S Y k+k.^.V.5 J % ~ A A . . . . . . . . A ~ G M : 6 S s.;.J M G ",
". . . . . A ~ % M 6 `.s.V.5 : M G ~ A A A . . . . . . . . . . . . . . A ~ G : Q !+^.Y.;.[+1.~+^.)+6 : % ~ A . . . . . . . A A A ~ G M : @ g s.Z.; : % ",
". . . A A ~ G M : 1.s.Y.1.J M G ~ A . . . . . . . . . . . . . . . . . A ~ % : 5 V.^.T.; Y `.^.s.;.@ M % ~ A A A . . . A A A ~ ~ G % M J Q Y Z.Y.1.J M ",
". . . A A G % : 5 Z.s.y @ : % ~ A A . . . . . . . . . . . . . . . . A A ~ M J ;.s.^.+.Y Y T.^.V.5 J M G ~ A A A A A A ~ ~ ~ G G % M : @ C+6 k.^.+.Q : ",
". . A A ~ G M Q `.s.T.; : % G A A . . . . . . . . . . . . . . . . . A ~ % : 6 k.^.@.1.[+q+Y.^.S 6 J M % G ~ ~ ~ ~ G G G % M M : : J @ Q {.g V.^.V.Y : ",
". . A A G % : 5 V.~+[+J M G ~ A . . . . . . . . . . . . . . . . . . A ~ % J [+@.^.T.; ; k.^.s.`.Q @ : M % G G % % M M : : J @ Q {.5 1.`.T.@.^.^.~+[+: ",
". . A ~ % M Q +.s.!+6 : % ~ A . . . . . . . . . . . . . . . . . . . ~ G M @ y ^.s.y {.Y Z.^.s.!+6 Q J : : : : : : J @ 6 Y 1.y S T.@.s.^.^.^.s.~+k.5 M ",
". . A ~ % : 5 V.@.[+J M G A A . . . . . . . . . . . . . . . . . . A ~ % : 6 k.^.V.[+{.6 1.V.^.s.`.6 Q @ @ J Q {.5 1.`.k.V.Y.^.^.^.^.^.~+T.S ;.[+{.J M ",
". A ~ G M @ ;.s.!+Q : % ~ A A . . . . . . . . . . . . . . . . . A ~ G M J [+~+^.S 6 C+Q Q [+k.s.s.!+Y Y [+;.!+T.@.s.^.^.^.^.s.V.T.+.;.[+; Q J : M % G ",
". A ~ % : ; T.Y.1.J M G A . . . . . . . . . . . . . . . . . A A ~ G % : @ `.^.s.;.Q @ J J @ {.+.s.^.V.V.Y.s.^.^.^.s.Y.V.k.+.y I ; 6 Q @ J : M % G G ~ ",
". A G % : 1.Y.Z.Y : % ~ A . . . . . . . . . . . . . . . . A ~ ~ G M : @ ; T.^.V.Y @ : : : J @ {.!+^.^.^.^.s.V.T.S `.;.[+; Y 5 k+6 Q @ J M % G ~ ~ A A ",
"A A G M @ +.^.!+Q M % ~ A . . . . . . . . . . . . . A A A ~ G % M : @ Q q+Y.^.+.Q J : M M : J Q Y )+Z.k.+.q+[+k+Y 5 [+5 ; [+q+`.1.{.@ M % G ~ A A A . ",
"A ~ % : ; T.Y.1.J M G A A . . . . . . . . . . . . . A A ~ % M : @ {.5 y Z.^.Y.1.Q J M M M : J Q 6 {.5 ; 5 [+Y Y k+1.y !+T.V.Y.^.@.5 @ M G ~ A A . . . ",
"A ~ % : [+@.V.5 J % ~ A A . . . . . . . . . . . . A A G % : Q 5 `.T.V.Y.^.^.Z.; @ J : : : J @ C+6 {.; ; F q++.)+Z.@.s.^.^.^.^.l.s.;.@ M G A A A . . . ",
"A ~ % J 1.~+T.{.: % G A . . . . . . . . . . . . . A G % : {.y ~+s.Y.Z.Z.V.~+;.Q Q @ J J J @ Q {.5 q+!+T.V.Y.^.^.^.^.s.Y.Z.k.k.Y.^.`.@ M G A . . . . . ",
"A G % J `.s.!+Q M G ~ . . . . . . . . . . . . . A ~ G M {.!+s.Y.S 1.Y ; [+5 ; Q Q Q Q ; [+q++.T.V.s.^.^.^.^.s.V.T.+.y 1.; {.{.!+s.S Q M G ~ . . . . . ",
"A G M @ !+s.y @ M G A . . . . . . . . . . . . . A G M : 1.s.Y.y 6 @ @ @ J J @ @ Y 1.!+Z.~+s.^.^.^.^.Y.Z.k.`.1.5 6 Q J @ @ Q C+;.Y.k.6 : G A A . . . . ",
"~ G M C+T.s.g J M G A A . . . . . . . . . . . A ~ % M {.k.s.y Q J : M M : : J Q ;.s.^.^.^.s.@.T.!+y 1.Y 6 @ J : : : M M : J Q 5 V.Z.Y : G ~ A . . . . ",
"~ G M C+Z.Y.1.J M G A A . . . . . . . . . . . A ~ % : [+Y.T.; @ : M % % % M : @ 1.Y.^.~+S ;.[+{.Q J : : : M % % % % % % M : @ ; T.V.Y : % ~ A . . . . ",
"A G M C+Z.Y.[+J M G A A . . . . . . . . . . . A ~ % : ;.s.!+Q J M % ~ ~ G % : @ Y Z.Y.`.6 @ @ : : M % % % G ~ ~ ~ ~ ~ ~ G M J ; T.V.5 : % ~ . . . . . ",
"~ G M Z Z.Y.1.J M ~ A A . . . . . . . . . . . A ~ % J ;.s.!+Q J M % G ~ G % : J k+U @.I g+J M % % G G ~ ~ ~ A A A A A A G M : ; T.V.Y : % ~ A . . . . ",
"~ G M Z Z.~+1.J M G A A . . . . . . . . . . . A ~ % : 1.s.k.{.@ : % G G % M m+A+z.u U k+A+M % G ~ A A A A . . . . . A A G % : Y T.V.Y : % ~ A . . . . ",
"A G M C+T.Y.;.J M G A A . . . . . . . . . . . A ~ G : 5 V.~+1.@ J : M M M m+=+s S.t S.s >.h+~ A A A . A . . . . . . . A G % J Y Z.V.Y : % ~ . . . . . ",
"~ G M J S s.y J M G ~ A . . . . . . . . . . . A ~ G M Q +.^.V.[+@ J m+: m+=+u+! j.[ W.H+h 2.7.A A . . . . . . . . . . A G % J [+~+T.{.: G ~ A . . . . ",
"A G M J `.s.`.@ : % ~ A . . . . . . . . . . . . A ~ % : 5 Z.s.V.;.; C+g+v.^ 1 @+'+8.n+' F+d A . . . . . . . . . . . . A G M J 1.Y.S Q M G A A . . . . ",
"A G M : q+s.S Q : % ~ A . . . . . . . . . . . . A A G % : [+n s.O I.S S.>+.+) 8 m.c++ K ( D f+f+. . . . . . . . . . A ~ G M J y s.+.@ M G A A . . . . ",
"A ~ % : [+@.Z.; : % ~ A . f+f+f+. . . . . . . . . A ~ 9+h+m+; z.I.~+t  +] .+p.r 9.0 , 2 D+8+D f+f+f+. . . . f+f+. f+7.2.9+: Q +.s.;.J % G A . . . . . ",
"A ~ G : {.T.Y.1.: M 2.7.7.f+4 f+f+f+f+f+f+f+f+f+. . 7.2...h+>.A+++z.3.3.:+<+= r [.a , ~.c - ,.4 f+f+f+f+f+4 4 f+f+4 D 2.h+m+6 T.~+5 : % ~ A . . . . . ",
". ~ % M @ +.s.y A+>...D D ,.,.,.,.,.,.,.,.4 4 ,.4 4 4 D d d F+r+' L L 0+_.s+w 8 , , r ~.c j+- ,.,.,.,.,.,.,.,.,.- 8+8+o+r+l F u n ; M % ~ . . . . . . ",
". A G % : g Y.>+Z H+' ( j+j+j+c j+j+j+j+j+- - - - ,.,.,.8+W ( 5+5+N N B+B+{ 4+~.2 <.2 # '.j+j+- j+j+j+j+- j+j+c c D+5+a+' } Q. +S.g+M G A A . . . . . ",
". A ~ % : k+E.1+^ L 2+e K '.~.~.# # '.'.'.'.'.'.c c c j+D+c '.K w w w 7+'.7+C y+y+y+2 7+# c '.c '.'.'.'.'.# '.# ~.# 6+B+s+l+V ] z.m+h+~ A . . . . . . ",
"A A ~ G >.g+S.$+ .P B+2 + c+, =.G.< 8 2 ~.> 8 + %.# '.'.# > 8 + 8 <.r r %.2 2 > + r %.# ~.# '.> 8 + %.2 2 + < G.=., c++ y+i+/.b.x >.9+2.A . . . . . . ",
". . A 2.h+l ^ @+^+t++ F.0 a o.o.o.H.9.=.+ B 9.0 , > ~.~.<., 0 0 L.).0 O.+ <.<.< 9.6.!.2 2 2 2 !.0 9.G.r 7 9.a o.o.o.a 0 F.+ }.8.n+r+..7.A . . . . . . ",
". . A 2...H+l+V }.r 0 o.l.l.o.H.a o.l.a 6.6.o.o.m %.2 2 > F.o.a a o.l.9.+ <.<.G.a o.q.<.2 2 <.7 l.o.[.6.a o.o.H.a o.l.l.l.0 < t+j R o+7.A . . . . . . ",
". . . 7...' _.i+r 0 l.l.a * x+B B 7 * o.o.a a o.).> <.<.> ).a a a o.` !.%.<.> G.o.l.m <.<.<.> F.o.a a o.a ` =.B B =.` o.l.o.0 r B+e W 4 f+. . . . . . ",
". . . 7.o+R s+v m l.l.a =.v+C 7+7+2 8 7 a [.6.a ).%.> > > ).o.a a * + <.2 <.<.=.o.o.L.> <.> > L.a [.[.H.7 8 C C f f 8 F.o.l.l.L.%.e D+,.f+. . . . . . ",
". . f+D 8+5+B+c+[.l.o.=.| -.4+w w ~.~.<.7 a a o.* %.> > > * o.o.6.r 2 2 2 2 <.G.a l.L.> > <.> L.l.a a 7 > 7+7+{ H &+c.P.7 o.l.H.< 6+D+8+f+f+. . . . . ",
". . f+f+W e C F.o.l.` 8 c.H B+e e K # ~.T 9.o.l.* %.> > > ).l.l.F.<.2 ~.# ~.2 G.a o.).<.<.> > m l.l.* 8 C w 6+N s+b+f.$.T ` l.o.F.~.c - 4 . . . . . . ",
". f+f+4 ,.K v ` l.o.7 z f.b+j a+5+D+'.# 2 7 o.l.).%.> > > ).l.a G.2 # '.# # 2 , o.o.L.> <.> > L.l.a =.2 w 6+N 2+n+ .}+a.E+7 o.l.* > c - 4 f+. . . . . ",
". . f+4 - K e.6.l.a B }.&.(+w.L R ( e w 2 G.o.l.* %.> > %.).l.a G.~.# '.'.# 2 G.a o.).<.<.<.> L.o.a B C 6+N 2+} C.@+/.0.X B a l.6.8 c - 4 f+. . . . . ",
". . f+4 - K i 0 l.a G.{+3+/. .u+L a+e w C G.a l.).%.> > > ).l.a !.~.# '.'.# ~., a l.m <.> <.<.).o.a B f H j } 3.@+'+8.= -.B a l.6.+ c - 4 f+. . . . . ",
". . . 4 - c v ` l.o.=.-.0./.'+-+B._.B+{ C =.o.l.* %.> > %.).l.a B ~.'.c c '.~., a l.L.> <.> <.L.l.a x+f |._.E [ '+ .b+H f x+o.l.* > c - 4 f+. . . . . ",
". . f+f+- j+~.F.l.l.).> &+0./.o  .5.H 4+%.).l.l.* %.> > > ).l.o.!.~.'.'.c '.~., a l.L.> y+y+> L.l.o.).v D.0.u.o (+b+H 4+> ).l.l.F.2 j+,.4 f+. . . . . ",
". . f+4 ,.j+'.B H.l.[.B f &+0.u.K.$ c.G+c+H.o.l.* %.v v > ).l.a c+~.'.c c '.# G.a o.L.> v v <.m o.a [.B %+$.3+f.b+H 4+C B a l.a B # j+,.4 f+. . . . . ",
". . f+f+4 - '.8 ` l.l.6.(.f X {+}.$./ m.[.a H.a * %.v v > ).l.o.!.# K K c '.# , o.o.).<.v p+y+F.a 6.6.0 B P.d+&+-.f y+B [.l.l.` 8 c - 4 f+f+. . . . . ",
". . . . 4 - c ~.< H.l.o.0 =.*.8 8 (.=.0 o.a H.o.).%.| p+> ).l.a G.7+K K e 6+w G.o.l.m > p+| > F.H.9.* [.[.7 m.T 8 (.7 [.l.l.H.< # j+- 4 f+. . . . . . ",
". . . . f+,.j+'.2 , a l.l.a [.9.9.[.a o.H.a o.o.).%.| p+> ).o.a B { 6+N a+N { G.a l.F.<.G+E+v F.o.a a a l.o.[.9.9.[.o.l.l.a , <.c - 4 f+f+. . . . . . ",
". . . f+f+4 j+c ~.> B 9.a o.l.l.o.o.H.* X.}+o.l.L.v+{+E+> =.H.[.(.H j 2+2+j H < [.H., y+d+4.T L.l.o.[.L.* H.o.o.o.l.o.a ` c+<.c j+,.4 f+f+. . . . . . ",
". . . f+f+,.- c # ~.<.+ G.F.* ` ).=.< v+e.L.o.o.7 e.}._+C + < < %._.B.B.B._ P %.(.< + | $.$.*+L.l.o.* v+8 c+7 L.` ).7 c+8 # c j+,.4 f+. . . . . . . . ",
". . . f+f+4 - c # ~.<.> > > %.8 %.<.v+T %.* l.a G.,+a.3+3+}.n.n.p.;+h.h.h.3 .+n.}.}.}.a.$ d+v L.l.o.7 y+y+y+2 > > > 2 # c j+- ,.4 f+f+. . . . . . . . ",
". . . f+f+,.- # <.> %.<.%.%.%.%.v+%.%.T B [.l.[.+ &+& E z+(+]+b.j.] 1+ + +1+[ ]+V  .z+<+b+= y+L.o.o.=.C C 7+'.'.c c j+j+- - 4 4 f+. . . . . . . . . . ",
". . . . f+4 - <.!.q./+m m.> v+v+v+%.> m.6.l.o.m > B+j 0+} =+v.W.! S.S.!+S.#.#+x u+} L 0+j H C L.o.a G.7+w '.c j+- - - ,.,.4 f+f+. . . . . . . . . . . ",
". . . f+f+4 - '.r 0 o.l.[.F.c+r *.c+7 0 l.l.[.r { e R r+h >.H+>.>.m+m+J m+m+m+>.>.H+r+R a+6+2 F.o.a G.~.c j+- ,.,.4 4 f+f+f+. . . . . . . . . . . . . ",
". . . . . 4 - j+~.< 0 o.l.o.[.0 0 [.a o.o.6.< ~.K W o+..9+9+9+h+h+h+% h+h+% h+h+9+9+..o+( K ~., H.[.< '.j+- 4 4 f+f+. f+f+. . . . . . . . . . . . . . ",
". . . . . f+4 - j+# r 7 6.H.a o.o.o.a 0 7 + # c - 8+D 7.7.~ 7.~ ~ ~ ~ ~ ~ ~ 2.~ ~ 7.7.D D D+# + < < 8 c - ,.f+. f+. . . . . . . . . . . . . . . . . . ",
". . . . f+f+4 ,.- j+c 2 + B 7 L.L.7 G.+ 2 '.j+- ,.D f+f+. A A A A A A A A A A A A A . f+4 ,.- c '.'.c - ,.4 f+f+. . . . . . . . . . . . . . . . . . . ",
". . . . . f+f+f+,.- j+c '.'.# ~.~.# '.c j+j+- ,.4 f+. . . . . . A . . . A . . . . . . . f+4 ,.- - - ,.4 4 f+f+. . . . . . . . . . . . . . . . . . . . ",
". . . . . . . f+f+4 ,.- - j+j+j+j+j+j+j+,.,.4 f+f+. . . . . . . . . . . . . . . . . . . . f+4 4 4 4 4 f+f+f+. . . . . . . . . . . . . . . . . . . . . ",
". . . . . . . . . f+4 4 ,.,.,.,.,.,.,.4 4 4 f+. . . . . . . . . . . . . . . . . . . . . . . . f+f+f+f+f+f+. . . . . . . . . . . . . . . . . . . . . . "};
