/* XPM */
static char * mail_xpm[] = {
"15 12 2 1",
" 	c None",
".	c #FFFFFF",
"               ",
" ............. ",
" ..         .. ",
" . .       . . ",
" .  .     .  . ",
" .   .   .   . ",
" .    ...    . ",
" .           . ",
" .           . ",
" .           . ",
" ............. ",
"               "};
