/* XPM */
static char * playlist_xpm[] = {
"13 10 2 1",
" 	c None",
".	c #FFFFFF",
"             ",
" ....  .     ",
" .   . .     ",
" .   . .     ",
" .   . .     ",
" ....  .     ",
" .     .     ",
" .     .     ",
" .     ..... ",
"             "};
