/* XPM */
static char * progtrack_xpm[] = {
"14 7 2 1",
" 	c None",
".	c #FFFFFF",
"              ",
"  .  ..   ... ",
" ..    .    . ",
"  .   .    .. ",
"  .  .      . ",
"  .  ...  ... ",
"              "};
