/* XPM */
static char * random_xpm[] = {
"13 10 2 1",
" 	c None",
".	c #FFFFFF",
"             ",
"        ...  ",
"       .   . ",
"       .   . ",
"     .   ..  ",
" ......  .   ",
"     .   .   ",
"             ",
"         .   ",
"             "};
