/* XPM */
static char * rip0_xpm[] = {
"13 13 2 1",
" 	c None",
".	c #000000",
"             ",
"   .......   ",
"  ..     ..  ",
" ..       .. ",
" .         . ",
" .   ...   . ",
" .   . .   . ",
" .   ...   . ",
" .         . ",
" ..       .. ",
"  ..     ..  ",
"   .......   ",
"             "};
