/* XPM */
static char * rotate_xpm[] = {
"11 13 2 1",
" 	c None",
".	c #FFFFFF",
"           ",
"           ",
" .         ",
" . .....   ",
" ..     .  ",
" ....    . ",
"         . ",
"         . ",
"         . ",
" .       . ",
"  .     .  ",
"   .....   ",
"           "};
