/* XPM */
static char * save_xpm[] = {
"16 15 2 1",
" 	c None",
".	c #FFFFFF",
"           ...  ",
"           ...  ",
"           ...  ",
"          ..... ",
"           ...  ",
" ....       .   ",
" .  .......     ",
" .        .     ",
" .        .     ",
" .   .........  ",
" .  .       .   ",
" . .       .    ",
" ..........     ",
"                ",
"                "};
