/* XPM */
static char * smile7_xpm[] = {
"12 12 2 1",
" 	c None",
".	c #000000",
"            ",
" ..      .. ",
" ..      .. ",
"     ..     ",
"     ..     ",
"     ..     ",
"     ..     ",
"     ..     ",
"            ",
"  ........  ",
" ..      .. ",
" .        . "};
