/* XPM */
static char * test_xpm[] = {
"75 79 33 1",
" 	c None",
".	c #050307",
"+	c #378EE1",
"@	c #930F21",
"#	c #1F4A84",
"$	c #96C8F4",
"%	c #153157",
"&	c #9F5086",
"*	c #B88EBB",
"=	c #216CC0",
"-	c #973C6A",
";	c #500913",
">	c #552748",
",	c #55A5EC",
"'	c #564E8E",
")	c #E8566B",
"!	c #A8ACDC",
"~	c #F4CED7",
"{	c #F1AEBB",
"]	c #DCE9F9",
"^	c #A56DA3",
"/	c #DC374D",
"(	c #5A8ED4",
"_	c #F06F85",
":	c #C01B30",
"<	c #5B6DBC",
"[	c #F38B9E",
"}	c #2D040B",
"|	c #B6D6F6",
"1	c #74B5F3",
"2	c #5B3766",
"3	c #6C0B18",
"4	c #1C59A2",
"....................................}..}...................................",
"..............................}.}}}}}}}}}}.}.}.............................",
"..........................}}}}}}}}}}}}}}}}}}}}.}...........................",
"........................}}}}};;;;;3333333;;;;;}}}}}........................",
".....................}}}}};;3;3@@@::/::/:@@3333;;}}}}......................",
"...................}.}};;;3@@:/)_[{{{~{{{[)/::@33;;}}}}....................",
"..................}}};;33@:)[{~~~~~~~~~~~~~~~[_/:@33;;}}...................",
".................}}};33:/_{~~~{[[_)/////)_[{~~]~{)/@33;}}}.................",
"..............}.}};33:/[~~~[_/::@@@@3@@@@@::/)[{~~{_/@33;}}................",
"..............}};;@@/[~~~[):@@333;;;;;;;;;33@@@/_[~~{_:@3;}}}..............",
"............}}};;3:_~]~_/@@33;;;};}}}}};}};;;;33@:/[~]{):33}}}.............",
"............}};3@/{~~[/:33;;}}}}}}}}}.}.}}}}};;;;3@:){~~_:3;;}}............",
"...........}};3:)~~~/:33;;}}}}.............}.}}};;;3@:_~]{/@;;}............",
"..........}};3@_~~[/@3;;}}}}....................}}};33:){~{/@;;}}..........",
"........}.};3:_~~_:@3;}}}........................}}};}3@/{~~/@3;}..........",
"........}};3@[~~_:3;;}}}............................}};;@:[~~/@;}}}........",
".......}};3@)~~):;;}}...............................}}};;@:[]{/@;}}........",
".......}};@)~~)@3;}}}.................................}};;@:{~{:3;}}.......",
"......}};3:{][:3;}}.....................................}}3@:{][:3;}}......",
".....}};3:{][:3;}}}......................................};3@/~~)@;}}......",
".....}}3@)~{/@;;}........................................}};3@_~{/3;}}.....",
"...}.};3/{~_@3}}}.........................................}};@:{~_:3;}.....",
"....};3@_~{:3;}}...........................................}};@/~~/@;}}....",
"....};3/{~/@;}}.............................................};3:[~[@3;}}...",
"..}}}3@_~[:3;}}............................................}}};3/{~/3;}....",
"...};3:{~/@;}}...............................................};3@[~[@;;}...",
"..}};@)~{:3;}......................}.}..}...................}.}33/~{:3;}}..",
"..};3@[~)@3}}...................}.}}}}}}}.}..................}};@:{~)@;}}..",
".}};3/{~/@;}}..................}}};};;};;}}}..................}}3@)~[@3}}..",
"..};@)~{:3;}}.................}};;333@33;;;}}}.................};3/~{:3;}}.",
".}}3@[~_@3;}................}}};;@@//)//:@;;}}................}};3:[~/@;}..",
".};3:[~)@;}.................}}33:)[~~~~~[):3;}}}...............};3:[~_@;}}.",
"}};3:{~/3;}}...............}};@:[~~{[[[{~~[/@;}}................};@)~[:3}}.",
".}}@/~{:3;}...............}};3/{]~_/::::_~~{:3;}}..............}};@)~{:3;}}",
"}};@)~[:3;}...............}};@_~{/:333@@@/{][:3}}..............}};3/~{:3}}.",
"}};@[~[@3}}...............};3/~~/@33;;;33:){~/3;}}..............};@:{~)3}}}",
".};@[~_@3}}..............}};@)~[:@3;}};;;3:[~_@;}..............}};3:{~)3;}.",
"};;:[~_@3}}..............}}3@[~)@3;}}}}}33@_~_@;}}..............};3:{~)3;}}",
".};@[]_@3}}..............}};:[~)@3;}}}}};3@)~[:;}}..............};3:{~)3;}.",
"}};:[~_@3}}..............}}3@[~_@3;}}.};;3:_~_@;}}..............};3:{~)3;}}",
"}};@[~_@3;}..............}};@)~{:@3;};;;33:{~)@;}...............};3:{~)3;}.",
"}};@_~[@3}}...............};3/{~_:@3;3;3@:_~{:3;}}............}.};@:~~/3}}}",
".};3)~{:3;}...............}};@)~~_:@@3@@:_~~)@;}.........%.%.%.%};3/~{/3;}.",
"}};@/{{:3;}}..............}};3:[~~[)/:/){~~_@3;}}.........%.%%%}}>@)~[:3}}.",
".};;:{~/3;}................}};3:){~~~{~~~{_:3;}.........%%%%%%%%>;@_~[@;}}.",
".}}3:[~)@;}}................}};3@:_[{{{[_:@3;}}}......%.%%=+,+4%>>:[~)@;}}.",
".}};@)~[@3;}.................}};;3@@:::@@3;}}.......%.%.%%=$|$+%>>:{~/3;}..",
".}};@/~{:3;}..%..%.%.%.%.......}>}>>>>>>>};}.}........%%%#+|]|(%>>)~[:3;}}.",
"..};3:[~)@;;.%.%%.%%%.%.%%...%..%}%>%;%>%}%}....%.%%%%%%##=|]|+22>[~_@;}}..",
"..}};@_~[@>}>.%%%%%%%%%%%%%%.%.%}%%%2%%%%%%.%.%.%.%%%%%#44+|]|+'2-!~/3;}...",
"..}};@/~{:>>%%%%44##%#%4#%%%%%.%%%%#444#%%%%%.%.%%%#444444+|]|(22)~{:3;}}..",
"...};3:{~_@>2%=+,,,+=4=++=%%%%%%#4+,,1,,+4%%%%%%%#4+,1,++=,]]|('-*|)@;}}...",
"...}};@)~!-2#=1|]]||1+,||,=%%%#%+1||]||]$1=%%%%%#=,|]]||$1$]]|('^{{:3;}....",
"....};;:{~^2=1]]|$11|$|]],44##4=$]]|111|]]1=%#%#=$]]]$$1||]]]|('*|_@;}}}...",
"...}.};@^!!<,]]]1===,$]]]$=###4,]]$+=4=+$]]+4##4+]]|,===+|]]]](^$!/;;}.....",
"....}}>3-*$=$]]1=4444,]]]144#4+|]|+44444+|$,444=$]]1=44=4+]]]|(!!^@3}}}....",
"......}>>&(,]]$==4#44=1]]1=444+|]$=##%##=+++#44+|]$+4##44=1]]]+$*->;}......",
"......>;>2<1]]1=#####4,]]1=44=1]],4##%#%%#44#4=,]]14#####4,]]|(!&>>}}......",
".......%>2=$]],4'#%###+|]1==4=1]]+4#%%%%%#%###41]],4##%##4+|]](^2>;}.......",
"......}}%2=$]],'''###4+|]1=4==1]]+4#%%%%%%##44=1]|,4##%##'+|]|('>>%}.......",
".......%>%'$]|,<''2###+|]1==4=1]],4##%%%#%###44,]],4###'''+|]|('>%.}.......",
"........%%41]]1((''''4,]]1=4441|],4##%##%#4##4=,]]1=4'#''<,]]|+'%}%........",
".......%%%#,]]|+1*<'4=1]]1=444+]]1=4####=+++#44+|]$+#'4'(=$]]](#%%.........",
"........}%%+|]]1+,1<=,]]]1=444+|]|,44#44,||+4#4=$]]1<4^(+,]]]|+2%%.........",
"........%%%4,]]|1+<+,|]]]$=4444,]]|,===,|]|+###4,|]]1+=(,|]]]|(%%..........",
".........%%#=$]]]$$$||]]]14'##4=$]]|$1$|]|,4##'#=$]]]$$$|||]]$+%%%.........",
".........%%%4=1|]]||1,$]]$=''2##=1|]|]||$,=#2222'=1|]|]|$,11$,=%%..........",
"..........%%44=+,,,+==,|]1=^&-22#4++,,,+=42>2--^*1=++,++=#4==4#.%..........",
"........%%%%4444=4===<,|]1=!!*^&--2'#4'''-&)^[{|~!*''44#%#%%%%%%...........",
"..........%%44=4======,|],=*!!~~!!******!{!~~|~*_--22>%2%%%%%%..%..........",
"........%.%4+,,+4====+|]|+'-&_*{{|~|!~!~!~{*[)/:3>3>>%}%%.%................",
"........%.%4+|]$,+==($]|,42>>@@:/)_[*[*[^)-:@@33;>}}}%.}...%..%............",
"..........%%=+$|$111|$$,=#%>>>;>;33@3@@@3333;;;;}}}%.}.....................",
"..........%%%4=,,11,,+=#%%%}}};};;;;;;;3;;;;;}}}}..........................",
"...........%%%%#44=44#%%%.%...}}}}}}}}}}}}}.}..}..}........................",
".............%%%%%%%%%%.%........}..}..}..}................................",
"...............%.%%.%..%..%................................................",
"............%...%...%......................................................",
"..................%...%...................................................."};
